<?xml version="1.0" encoding="utf-8"?>
<svg xmlns="http://www.w3.org/2000/svg" xmlns:xlink="http://www.w3.org/1999/xlink" width="204.81" height="27.754" viewBox="0 0 204.81 27.754">
  <defs>
    <clipPath id="clip-path">
      <rect id="Rectangle_4" data-name="Rectangle 4" width="204.81" height="27.754" fill="#0081bc"/>
    </clipPath>
  </defs>
  <g id="Group_3441" data-name="Group 3441" transform="translate(-858 -84)">
    <g id="Group_1" data-name="Group 1" transform="translate(858 84)" clip-path="url(#clip-path)">
      <path id="Path_1" data-name="Path 1" d="M227.888,3.547a2.981,2.981,0,1,1-2.952-2.9,2.921,2.921,0,0,1,2.952,2.9m-5.216,0a2.256,2.256,0,0,0,2.263,2.314,2.22,2.22,0,0,0,2.21-2.3,2.239,2.239,0,1,0-4.474-.017m1.786,1.5h-.674v-2.9a8.08,8.08,0,0,1,1.115-.089,1.532,1.532,0,0,1,.99.231.725.725,0,0,1,.3.62.745.745,0,0,1-.6.688v.037c.282.088.425.319.512.706a2.481,2.481,0,0,0,.214.707h-.709a2.284,2.284,0,0,1-.23-.707c-.054-.3-.229-.442-.6-.442h-.319Zm.017-1.626h.318c.37,0,.672-.122.672-.424,0-.265-.194-.444-.62-.444a1.616,1.616,0,0,0-.37.037Z" transform="translate(-23.078 -0.067)" fill="#0081bc"/>
      <path id="Path_2" data-name="Path 2" d="M10.046,18.732H4.722v8.616H0V.514H10.58c6.255,0,10.2,3.528,10.2,9.008,0,6.055-4.829,9.209-10.737,9.209M10.2,4.811H4.722v9.663H10.2c3.56,0,5.789-1.955,5.789-4.834,0-3.186-2.265-4.829-5.789-4.829" transform="translate(0 -0.053)" fill="#0081bc"/>
      <path id="Path_3" data-name="Path 3" d="M47.936,27.348l-6.591-9.354H35.44v9.354H30.724V.514H42.686c6.174,0,9.97,3.262,9.97,8.518,0,4.448-2.647,7.123-6.4,8.157L53.5,27.348ZM42.3,4.811H35.44v9.007h6.9c3.378,0,5.525-1.764,5.525-4.526,0-2.952-2.066-4.481-5.56-4.481" transform="translate(-3.195 -0.053)" fill="#0081bc"/>
      <path id="Path_4" data-name="Path 4" d="M63.8.514V27.349H83.879V23.141H68.514V15.926H81.971V11.71H68.514V4.736H83.7V.514Z" transform="translate(-6.635 -0.053)" fill="#0081bc"/>
      <path id="Path_5" data-name="Path 5" d="M104.753,11.735c5.67,1.387,8.617,3.413,8.617,7.9,0,5.073-3.951,8.062-9.576,8.062a16.56,16.56,0,0,1-11.2-4.288l2.836-3.379a12.36,12.36,0,0,0,8.473,3.485c2.91,0,4.749-1.336,4.749-3.408,0-1.96-1.069-2.992-6.053-4.147-5.714-1.374-8.931-3.064-8.931-8.046,0-4.677,3.835-7.823,9.154-7.823a14.882,14.882,0,0,1,9.745,3.377l-2.531,3.562a12.169,12.169,0,0,0-7.285-2.763c-2.756,0-4.365,1.426-4.365,3.221,0,2.113,1.225,3.031,6.365,4.252" transform="translate(-9.629 -0.009)" fill="#0081bc"/>
      <rect id="Rectangle_2" data-name="Rectangle 2" width="4.717" height="26.835" transform="translate(111.491 0.462)" fill="#0081bc"/>
      <path id="Path_6" data-name="Path 6" d="M149.839,27.348h-10V.514h10C158.267.514,164.1,6.3,164.1,13.9s-5.835,13.452-14.263,13.452m0-22.536h-5.29V23.063h5.29c5.64,0,9.315-3.8,9.315-9.1s-3.675-9.156-9.315-9.156" transform="translate(-14.542 -0.053)" fill="#0081bc"/>
      <rect id="Rectangle_3" data-name="Rectangle 3" width="4.709" height="26.835" transform="translate(157.462 0.462)" fill="#0081bc"/>
      <path id="Path_7" data-name="Path 7" d="M203.8,27.753a13.623,13.623,0,0,1-13.98-13.838,14.028,14.028,0,0,1,28.055-.072A13.752,13.752,0,0,1,203.8,27.753m0-23.423c-5.327,0-9.046,4.268-9.046,9.514s3.795,9.578,9.124,9.578,9.057-4.252,9.057-9.507-3.8-9.586-9.135-9.586" transform="translate(-19.739 0)" fill="#0081bc"/>
      <path id="Path_8" data-name="Path 8" d="M203.8,27.753a13.623,13.623,0,0,1-13.98-13.838,14.028,14.028,0,0,1,28.055-.072A13.752,13.752,0,0,1,203.8,27.753m0-23.423c-5.327,0-9.046,4.268-9.046,9.514s3.795,9.578,9.124,9.578,9.057-4.252,9.057-9.507-3.8-9.586-9.135-9.586" transform="translate(-19.739 0)" fill="#0081bc"/>
    </g>
  </g>
</svg>
